<svg xmlns="http://www.w3.org/2000/svg" width="510" height="173" viewBox="0 0 510 173" fill="none"><path d="M367.97 172.496H339.87L337.07 159.096H318.57L315.57 172.496H293.17L313.97 91.4956H347.47L367.87 172.496H367.97ZM334.67 143.996C334.67 143.896 328.47 109.496 328.47 109.496L321.27 143.796C321.27 143.896 334.67 143.896 334.67 143.896V143.996Z" fill="#FAFF16"></path><path d="M262.87 132.496V91.4956H288.47V172.496H264.67L245.47 131.496V172.496H219.87V91.4956H243.67L262.87 132.496Z" fill="#FAFF16"></path><path d="M177.97 139.596V152.496H213.47V172.496H152.37V91.4956H211.67V111.496H177.97V123.296H206.27V139.696H177.97V139.596Z" fill="#FAFF16"></path><path d="M145.17 172.496H118.17V147.496C118.17 144.996 117.57 143.196 116.47 142.096C115.37 140.896 113.47 140.396 110.87 140.396H105.67V172.496H80.0703V91.4956H116.37C126.87 91.4956 134.67 93.3956 139.67 97.0956C144.77 100.796 147.37 106.396 147.37 113.996C147.37 121.596 145.97 123.696 143.27 126.996C140.57 130.196 136.17 132.396 130.27 133.596C140.17 136.096 145.07 142.496 145.17 152.796C145.17 163.096 145.17 172.596 145.17 172.596V172.496ZM105.57 111.396V126.596H112.37C115.47 126.596 117.67 126.096 118.97 125.096C120.37 123.996 121.07 122.296 121.07 119.896V117.996C121.07 115.596 120.37 113.896 118.97 112.896C117.67 111.896 115.47 111.396 112.37 111.396H105.57Z" fill="#FAFF16"></path><path d="M75.0704 172.496H46.9704L44.1704 159.096H25.6704L22.6704 172.496H0.370361L21.1704 91.4956H54.6704L75.0704 172.496ZM41.8704 143.996C41.8704 143.896 35.6704 109.496 35.6704 109.496L28.4704 143.796C28.4704 143.896 41.8704 143.896 41.8704 143.896V143.996Z" fill="#FAFF16"></path><path d="M403.97 0.795654V20.7957H384.27V81.7957H358.67V20.7957H338.97V0.795654H403.87H403.97Z" fill="#FAFF16"></path><path d="M308.271 41.8957V0.795654H333.871V81.7957H310.07L290.871 40.7957V81.7957H265.271V0.795654H289.07L308.271 41.7957V41.8957Z" fill="#FAFF16"></path><path d="M223.37 48.9957V61.8957H258.871V81.8957H197.771V0.795654H257.07V20.7957H223.37V32.5957H251.671V48.9957H223.37Z" fill="#FAFF16"></path><path d="M163.27 0.795654V61.7957H192.67V81.7957H137.67V0.795654H163.27Z" fill="#FAFF16"></path><path d="M134.27 81.7957H106.17L103.37 68.3957H84.8702L81.8702 81.7957H59.4702L80.3702 0.795654H113.87L134.27 81.7957ZM100.97 53.2957C100.97 53.1957 94.7702 18.7957 94.7702 18.7957L87.5702 53.0957C87.5702 53.1957 100.97 53.1957 100.97 53.1957V53.2957Z" fill="#FAFF16"></path><path d="M65.2704 0.795654V20.7957H45.5704V81.7957H19.9704V20.7957H0.370361V0.795654H65.2704Z" fill="#FAFF16"></path><path d="M480.825 60.8987H482.402C482.481 62.4437 483.395 63.2161 485.145 63.2161H485.224C486.642 63.2161 487.431 62.4594 487.431 61.482C487.431 60.6464 486.958 60.1262 485.838 59.8897L484.089 59.5114C482.244 59.133 481.377 58.1556 481.377 56.516C481.377 54.7661 482.859 53.2842 485.224 53.2842C487.683 53.2842 489.149 54.703 489.181 56.784H487.604C487.51 55.4913 486.611 54.703 485.239 54.703H485.176C483.852 54.703 482.953 55.4913 482.953 56.4845C482.953 57.3515 483.426 57.8087 484.546 58.0137L486.138 58.3447C488.014 58.7231 489.007 59.7005 489.007 61.3874C489.007 63.2792 487.51 64.635 485.066 64.635C482.244 64.635 480.888 63.1531 480.825 60.8987Z" fill="white"></path><path d="M472.917 64.4774V54.8607H469.78V53.4419H477.631V54.8607H474.494V64.4774H472.917Z" fill="white"></path><path d="M458.909 64.4774V53.4419H465.893V54.8607H460.485V58.0926H465.073V59.5114H460.485V63.0585H466.05V64.4774H458.909Z" fill="white"></path><path d="M447.563 64.4774V53.4419H454.547V54.8607H449.14V58.0926H453.728V59.5114H449.14V63.0585H454.705V64.4774H447.563Z" fill="white"></path><path d="M441.548 53.4419H443.471V64.4774H442.005V56.1062L440.428 61.4663H438.915L437.338 56.1062V64.4774H435.888V53.4419H437.796L439.672 59.8267L441.548 53.4419Z" fill="white"></path><path d="M493.852 46.9286V37.3119H490.715V35.8931H498.566V37.3119H495.429V46.9286H493.852Z" fill="white"></path><path d="M485.439 35.8931H487V46.9286H485.203L481.151 38.4628V46.9286H479.59V35.8931H481.451L485.439 44.2328V35.8931Z" fill="white"></path><path d="M468.498 46.9286V35.8931H475.482V37.3119H470.074V40.5437H474.662V41.9626H470.074V45.5097H475.639V46.9286H468.498Z" fill="white"></path><path d="M457.027 46.9286V35.8931H458.604V45.5097H464.516V46.9286H457.027Z" fill="white"></path><path d="M452.052 46.9286L451.2 44.0909H447.291L446.439 46.9286H444.863L448.3 35.8931H450.286L453.675 46.9286H452.052ZM447.716 42.672H450.775L449.245 37.5326L447.716 42.672Z" fill="white"></path><path d="M437.128 46.9286V37.3119H433.991V35.8931H441.842V37.3119H438.705V46.9286H437.128Z" fill="white"></path><path d="M502.406 29.38V18.3445H503.982V27.9611H509.894V29.38H502.406Z" fill="white"></path><path d="M497.431 29.38L496.579 26.5423H492.67L491.818 29.38H490.242L493.679 18.3445H495.665L499.055 29.38H497.431ZM493.095 25.1234H496.154L494.625 19.984L493.095 25.1234Z" fill="white"></path><path d="M482.507 29.38V19.7633H479.37V18.3445H487.221V19.7633H484.084V29.38H482.507Z" fill="white"></path><path d="M475.009 19.653H472.739V28.0715H475.009V29.38H468.892V28.0715H471.162V19.653H468.892V18.3445H475.009V19.653Z" fill="white"></path><path d="M456.539 23.8622C456.539 20.4569 457.989 18.1868 460.874 18.1868C463.286 18.1868 464.437 19.7948 464.563 22.0019H462.986C462.86 20.5042 462.151 19.6056 460.89 19.6056H460.827C459.093 19.6056 458.115 21.1979 458.115 23.8622C458.115 26.4634 459.045 28.1187 460.874 28.1187H460.937C462.246 28.1187 463.239 27.2201 463.239 25.6909V25.1707H460.921V23.7518H463.459C464.216 23.7518 464.626 24.1617 464.626 24.9184V29.3799H463.239V28.2133C462.687 29.0962 461.836 29.5376 460.669 29.5376C458.084 29.5376 456.539 27.2516 456.539 23.8622Z" fill="white"></path><path d="M452.32 19.653H450.05V28.0715H452.32V29.38H446.203V28.0715H448.473V19.653H446.203V18.3445H452.32V19.653Z" fill="white"></path><path d="M434.385 29.38V18.3445H437.365C440.108 18.3445 441.984 20.3782 441.984 23.878C441.984 27.3621 440.124 29.38 437.412 29.38H434.385ZM435.962 27.9611H437.286C439.257 27.9611 440.407 26.6211 440.407 23.8622C440.407 21.1349 439.257 19.7633 437.286 19.7633H435.962V27.9611Z" fill="white"></path><path d="M479.843 11.8312V0.795654H486.827V2.21451H481.419V5.44633H486.007V6.86518H481.419V10.4123H486.984V11.8312H479.843Z" fill="white"></path><path d="M475.545 8.00026V11.8312H473.969V8.2525C473.969 7.63767 473.732 7.40119 473.117 7.40119H470.059V11.8312H468.482V0.795654H472.313C474.205 0.795654 475.703 2.05686 475.703 3.75948C475.703 5.08374 475.072 6.0454 473.937 6.48682H474.016C475.088 6.48682 475.545 6.97554 475.545 8.00026ZM474.126 4.04325C474.126 2.86087 473.338 2.21451 471.951 2.21451H470.059V5.98234H471.951C473.228 5.98234 474.126 5.22562 474.126 4.04325Z" fill="white"></path><path d="M457.154 11.8312V0.795654H464.137V2.21451H458.73V5.44633H463.318V6.86518H458.73V10.4123H464.295V11.8312H457.154Z" fill="white"></path><path d="M445.572 11.8312V0.795654H447.149V5.60398H451.374V0.795654H452.95V11.8312H451.374V7.02283H447.149V11.8312H445.572Z" fill="white"></path><path d="M440.613 0.795654H442.079L441.117 11.8312H439.272L437.932 5.4148L436.435 11.8312H434.638L433.771 0.795654H435.205L435.773 9.51371L437.144 3.58606H438.736L440.045 9.52947L440.613 0.795654Z" fill="white"></path></svg>