<?xml version="1.0"?>
<svg xmlns="http://www.w3.org/2000/svg" xmlns:xlink="http://www.w3.org/1999/xlink" id="Layer_1" x="0px" y="0px" width="100%" viewBox="0 0 3003 300" xml:space="preserve">
<path fill="#FFFFFF" opacity="1.000000" stroke="none" d=" M3004.000000,208.000000   C3004.000000,238.996094 3004.000000,269.992188 3004.000000,300.944885   C2003.000000,300.944885 1002.000000,300.944885 1.000000,300.944885   C1.000000,254.562286 1.000000,208.234772 1.382277,161.593338   C4.059741,178.130096 12.947970,191.023117 26.257385,200.969437   C38.047115,209.780075 50.222603,218.072739 62.162533,226.684540   C88.679321,245.810059 115.400352,264.665192 141.559433,284.269287   C158.314194,296.825592 176.242294,303.061310 197.109833,298.985474   C215.647537,295.364716 229.686478,285.272766 238.978714,268.854370   C246.360611,255.811279 248.675156,241.852753 246.056931,226.987427   C243.510345,212.528885 237.338165,199.724030 225.945328,190.789001   C207.927078,176.657883 188.911301,163.798676 170.398560,150.459518   C181.786362,142.279419 193.242203,134.111038 204.630173,125.849159   C212.367401,120.235855 220.809067,115.300919 227.541351,108.650993   C246.320602,90.101532 251.789749,67.564056 243.638168,42.438248   C237.959106,24.933485 226.102356,12.475683 208.911438,5.498798   C204.407532,3.670897 199.644196,2.482233 195.000000,1.000000   C245.030914,1.000000 295.061829,1.000000 345.410126,1.379825   C343.986725,2.120368 342.233398,2.429551 340.507141,2.849931   C326.149506,6.346286 314.805969,14.406121 306.290009,26.286705   C293.763092,43.762974 291.547699,63.048668 297.838318,83.279564   C302.638275,98.716492 313.325226,109.432533 326.557800,118.352013   C341.687531,128.550247 356.188263,139.681595 371.142151,150.538055   C355.419800,161.825623 340.104675,173.237320 324.361420,184.024200   C301.647125,199.587494 291.442474,221.055145 295.250458,248.019485   C298.154907,268.585815 309.892273,284.108124 328.530334,293.803223   C339.051880,299.276306 350.455414,300.744232 362.213043,300.017303   C371.389191,299.449951 380.341553,297.296417 387.901611,292.348602   C402.097809,283.057617 415.700867,272.857178 429.505859,262.972443   C449.495758,248.659180 469.459320,234.308990 489.407227,219.937271   C499.393372,212.742630 509.948486,206.178085 519.139099,198.073074   C536.751038,182.541382 543.983398,162.667435 539.941772,139.268860   C537.868958,127.268227 533.435242,115.979897 524.098083,107.844650   C514.818726,99.759712 504.721741,92.585106 494.761902,85.314590   C468.224609,65.942711 441.629700,46.648224 414.927643,27.504332   C404.834961,20.268419 394.613800,13.152296 383.994873,6.736878   C379.242523,3.865754 373.366241,2.855008 368.000000,0.999999   C1246.666626,1.000000 2125.333252,1.000000 3004.000000,1.000000   C3004.000000,64.444366 3004.000000,127.768555 3003.639160,191.428879   C3002.396484,189.547699 3001.822021,187.139542 3000.582520,185.144791   C2993.807129,174.241058 2982.609619,170.394119 2971.146240,166.987946   C2962.381348,164.383606 2953.591309,161.840271 2944.929932,158.920593   C2940.019775,157.265320 2937.390137,153.225327 2937.077393,148.160721   C2936.748535,142.840988 2939.983398,139.392578 2944.370605,136.951538   C2958.115479,129.303711 2977.876953,133.809052 2984.902832,148.311966   C2990.646484,145.677673 2996.395752,143.040695 3003.584961,139.743484   C2998.553223,134.353302 2994.687744,129.015442 2989.705811,125.096970   C2973.954590,112.708214 2944.671875,113.281593 2928.081055,125.695724   C2915.956055,134.768356 2915.089111,157.652908 2924.099121,166.723251   C2932.127197,174.805084 2942.203613,178.202057 2952.740479,181.024628   C2962.030762,183.513275 2971.849121,184.773087 2979.705322,191.002060   C2987.377686,197.085464 2986.564209,205.915680 2980.190186,210.798645   C2970.610596,218.137299 2959.416504,217.688889 2948.613281,213.735443   C2940.194824,210.654663 2934.542725,204.065262 2930.729004,195.634552   C2925.656250,197.861786 2920.916016,199.776260 2916.364990,202.066833   C2915.325684,202.590057 2914.035889,204.963013 2914.393555,205.548904   C2917.672607,210.918091 2920.396973,217.104309 2924.982422,221.104385   C2936.872559,231.476929 2950.974854,235.030182 2966.953369,233.190018   C2984.064941,231.219391 2997.074463,224.385223 3004.000000,208.000000  M710.990601,114.511063   C717.562317,105.454918 725.964600,98.877243 736.491211,94.843819   C748.639221,90.189102 760.757324,88.672218 773.667786,91.792725   C785.446167,94.639618 795.265198,100.244545 803.125000,108.527069   C807.708618,104.054749 812.209595,99.663033 817.680359,94.325150   C811.449036,89.835800 805.728455,84.692680 799.142883,81.163551   C780.253296,71.040863 759.941833,69.252159 739.348877,74.147247   C716.492249,79.580406 699.468140,93.259415 688.521973,114.058380   C679.348328,131.489441 677.161011,149.895309 680.850525,169.364365   C684.526733,188.763260 694.349670,204.369186 709.244263,216.466125   C727.855103,231.581299 749.892639,236.388855 773.348938,232.840683   C792.530457,229.939133 809.150818,221.554245 820.979797,205.471237   C833.831177,187.998138 837.593140,168.369232 834.742188,147.345337   C809.257874,147.345337 784.191223,147.345337 759.358643,147.345337   C759.358643,153.436569 759.358643,159.177979 759.358643,165.000000   C769.044800,165.000000 778.372620,165.000000 787.700439,165.000000   C797.110596,165.000000 806.520752,165.000000 816.273743,165.000000   C815.136475,177.308533 811.545349,187.883804 803.767212,196.655106   C794.804016,206.762756 783.601807,212.295319 770.010376,214.216415   C751.107300,216.888260 734.444824,212.641083 720.026672,200.443192   C694.848694,179.142426 692.322754,140.159653 710.990601,114.511063  M2360.537842,99.966972   C2359.356445,101.329659 2358.062012,102.610649 2357.011230,104.067459   C2343.188721,123.227379 2339.334473,144.639984 2343.023438,167.618134   C2347.106689,193.054764 2360.925537,211.730759 2383.370361,223.995972   C2400.847656,233.546829 2419.449219,235.830078 2439.009521,232.058167   C2461.833740,227.656799 2479.168457,215.632141 2489.854004,195.068787   C2497.603271,180.156784 2499.780518,164.014908 2496.800537,147.239853   C2471.820801,147.239853 2447.080322,147.239853 2422.251953,147.239853   C2422.251953,153.217651 2422.251953,158.952362 2422.251953,165.063782   C2441.210205,165.063782 2459.920654,165.063782 2478.604492,165.063782   C2478.351562,166.225052 2478.090088,167.018646 2478.015381,167.829437   C2476.583984,183.379913 2469.870117,196.173279 2456.928955,204.916473   C2434.082520,220.351898 2402.394775,218.852203 2381.246094,199.546417   C2363.257812,183.125351 2357.822266,161.897064 2362.423340,138.462936   C2365.302002,123.801826 2372.635010,111.128304 2385.243896,102.312653   C2400.424316,91.699005 2416.952148,87.448830 2435.441162,91.719353   C2447.298584,94.458237 2457.466797,99.762260 2464.657471,108.075119   C2469.502197,103.417725 2474.139160,98.959953 2478.888184,94.394608   C2466.263184,80.870934 2450.010742,73.992172 2431.824219,72.172867   C2415.903320,70.580208 2400.134521,72.354706 2385.624023,80.021767   C2376.255859,84.971794 2367.292725,90.518700 2360.537842,99.966972  M1170.957031,265.404480   C1171.244019,264.833801 1171.423950,264.167786 1171.834106,263.706543   C1179.812134,254.734451 1183.944580,244.226547 1183.971191,232.254410   C1184.051147,196.271057 1184.000000,160.287430 1184.000000,124.303917   C1184.000000,122.560005 1184.000000,120.816093 1184.000000,119.202644   C1177.642578,119.202644 1172.024048,119.202644 1165.996826,119.202644   C1165.996826,124.094353 1165.996826,128.804443 1165.996826,132.984024   C1161.356689,129.315628 1157.064209,125.116356 1152.050293,122.127487   C1141.899048,116.076324 1130.886108,115.112404 1119.129517,116.840073   C1100.428711,119.588203 1084.120239,135.861984 1078.954102,154.087250   C1075.446777,166.461090 1075.174927,178.881958 1078.083252,191.278656   C1080.606934,202.035812 1085.786255,211.744843 1093.913574,219.182861   C1104.106567,228.511505 1116.322388,232.680969 1130.516724,232.183212   C1145.236572,231.667007 1156.567261,225.683731 1165.999634,213.999695   C1165.999634,219.808533 1166.507935,225.128525 1165.885986,230.312912   C1164.836426,239.059982 1162.574829,247.548447 1155.658936,253.791397   C1149.816040,259.065796 1142.932007,261.436890 1134.977539,262.160889   C1122.641235,263.283661 1112.524658,259.897980 1104.751343,250.196274   C1102.457275,247.333038 1100.553711,244.156799 1098.522217,241.198395   C1092.639771,243.644714 1086.899536,246.031860 1081.257812,248.378098   C1081.925903,250.186981 1082.354858,251.943832 1083.178955,253.489975   C1095.642944,276.874176 1118.155762,282.285583 1141.058350,279.457092   C1152.241333,278.075989 1162.083130,273.520325 1170.957031,265.404480  M1396.000000,216.491943   C1396.000000,220.925125 1396.000000,225.358307 1396.000000,230.000000   C1411.568359,230.000000 1426.548828,230.218033 1441.518433,229.910782   C1449.356445,229.749908 1457.384888,229.577911 1464.964844,227.834488   C1490.631348,221.931183 1508.534180,206.894485 1517.200439,181.487305   C1522.557129,165.782852 1523.252563,149.913788 1519.995361,133.768509   C1516.292847,115.415276 1507.501587,100.098915 1492.184326,89.080711   C1478.465820,79.212494 1462.671509,75.410851 1446.008789,75.046410   C1434.849365,74.802338 1423.680420,75.000000 1412.515747,75.000000   C1407.084473,75.000000 1401.653076,75.000000 1396.000000,75.000000   C1396.000000,122.223335 1396.000000,168.859268 1396.000000,216.491943  M2898.542480,133.028030   C2895.356689,130.178787 2892.488281,126.831367 2888.930664,124.565605   C2872.677002,114.213432 2855.545654,112.511040 2838.260742,121.529510   C2832.285400,124.647072 2827.289795,129.642120 2821.939453,133.709076   C2821.939453,129.434097 2821.939453,124.381821 2821.939453,119.244110   C2815.796387,119.244110 2810.062500,119.244110 2804.225098,119.244110   C2804.225098,171.868805 2804.225098,224.249130 2804.225098,276.765137   C2810.518311,276.765137 2816.584717,276.765137 2823.064453,276.765137   C2823.064453,256.518005 2823.064453,236.501190 2823.064453,215.817154   C2825.017578,218.073853 2826.278320,219.962097 2827.939941,221.380737   C2839.056641,230.872025 2851.555176,235.009689 2866.472412,233.194077   C2883.108643,231.169250 2895.273193,222.984879 2904.080078,209.324753   C2911.378174,198.005005 2913.333984,185.300598 2913.068848,172.000626   C2912.779541,157.495117 2908.043213,144.788742 2898.542480,133.028030  M1999.000000,170.500000   C1999.000000,205.916107 1999.000000,241.332199 1999.000000,276.706268   C2005.637695,276.706268 2011.705933,276.706268 2018.000000,276.706268   C2018.000000,266.274261 2018.000000,256.134338 2018.000000,245.994415   C2018.000000,235.799393 2018.000000,225.604355 2018.000000,215.772293   C2018.707031,216.644394 2019.758057,218.250168 2021.103394,219.551834   C2032.656860,230.730606 2046.195068,235.319351 2062.372803,233.108856   C2082.169189,230.403870 2095.091797,219.099243 2102.855469,201.613022   C2108.310791,189.326263 2108.880127,176.255203 2107.151367,162.802429   C2104.409912,141.471359 2088.561523,122.242104 2067.532471,117.340424   C2053.582031,114.088646 2039.985596,115.385521 2028.119995,124.457970   C2024.219482,127.440224 2020.754395,130.991882 2016.822510,134.523590   C2016.822510,129.367981 2016.822510,124.298615 2016.822510,119.294937   C2010.693726,119.294937 2004.959106,119.294937 1999.284058,119.294937   C1999.154297,119.899574 1999.028931,120.211349 1999.028564,120.523239   C1999.012329,136.848816 1999.006836,153.174408 1999.000000,170.500000  M1774.504517,214.067795   C1760.076416,210.208740 1749.077271,195.992493 1749.271729,178.895599   C1778.123779,178.895599 1806.987671,178.895599 1836.830078,178.895599   C1835.834351,170.457977 1835.684204,162.496277 1833.831787,154.952530   C1830.494385,141.360611 1823.666748,129.960602 1810.737549,122.896385   C1798.798340,116.373146 1786.378662,114.711937 1773.087036,116.944809   C1754.549194,120.059059 1742.645142,131.300995 1735.058228,147.662476   C1728.787842,161.185074 1727.850830,175.346664 1730.935181,189.959381   C1734.504272,206.867706 1743.492310,219.843262 1758.717285,227.788773   C1769.219727,233.269699 1780.628296,234.325943 1792.690430,233.253021   C1809.468994,231.760529 1827.169312,219.752777 1833.674072,203.886322   C1828.385742,201.222092 1823.077759,198.547974 1818.216064,196.098694   C1813.763062,200.880463 1810.060547,206.094666 1805.206421,209.800323   C1796.271362,216.621277 1785.878540,217.527481 1774.504517,214.067795  M2121.037842,141.637344   C2120.023926,143.629303 2118.892334,145.570999 2118.014893,147.621414   C2112.167236,161.290070 2110.939209,175.360229 2113.950928,189.945129   C2117.446289,206.873413 2126.488037,219.837585 2141.713379,227.786789   C2152.217285,233.270828 2163.627686,234.323212 2175.691162,233.253220   C2192.471680,231.764832 2210.204346,219.723022 2216.667969,203.880798   C2211.378418,201.217957 2206.068359,198.544846 2200.776123,195.880676   C2186.166016,218.714813 2168.051025,218.417038 2154.979004,213.453629   C2140.437988,207.932281 2131.350586,191.864685 2132.453613,179.000000   C2146.718506,179.000000 2161.015381,179.000000 2175.312256,179.000000   C2189.754150,179.000000 2204.195801,179.000000 2219.424072,179.000000   C2218.925293,172.149078 2218.922852,165.715759 2217.902344,159.448135   C2215.837891,146.766632 2210.412109,135.485794 2200.413574,127.251587   C2190.165771,118.812096 2177.907959,115.633591 2164.617432,115.956512   C2145.572510,116.419250 2131.504639,125.179054 2121.037842,141.637344  M1537.400635,209.916504   C1537.991699,210.502136 1538.693115,211.011536 1539.157471,211.684616   C1549.159546,226.182571 1563.637939,232.875824 1580.569458,233.809708   C1593.512451,234.523605 1606.348877,232.045807 1616.680420,223.515182   C1623.118530,218.199448 1629.803467,212.523682 1632.235840,203.467163   C1626.824585,201.002060 1621.610596,198.626801 1616.405518,196.255630   C1602.418213,217.106750 1587.094727,219.130951 1571.519653,213.679306   C1556.547974,208.438873 1547.162476,193.004730 1548.333740,179.000000   C1549.911987,179.000000 1551.534058,179.000000 1553.156006,179.000000   C1578.299683,179.000000 1603.443359,179.000504 1628.587036,178.999649   C1634.998535,178.999420 1635.104126,178.995041 1634.955078,172.361633   C1634.881836,169.106232 1634.338867,165.860962 1633.998901,162.612091   C1632.826416,151.401627 1629.004272,141.324982 1621.364258,132.848785   C1613.226562,123.820572 1603.458862,118.516762 1591.136963,116.741554   C1579.031006,114.997459 1567.420532,115.963768 1557.068970,121.731621   C1537.928467,132.396652 1529.492798,150.093170 1528.021729,171.432083   C1527.090088,184.947235 1530.518433,197.486420 1537.400635,209.916504  M1230.999878,191.394348   C1234.763062,207.662720 1243.880615,220.119659 1258.645996,227.759979   C1269.176392,233.208817 1280.558716,234.384293 1292.617676,233.222015   C1310.973511,231.452820 1322.841553,220.957169 1332.525513,206.769791   C1333.021851,206.042618 1332.034058,203.299133 1331.032593,202.726303   C1326.635620,200.211197 1321.979492,198.149445 1317.478882,195.953384   C1304.618042,216.444641 1288.026001,219.281616 1272.258789,213.621506   C1256.097534,207.819946 1247.179810,189.165100 1249.595947,179.000000   C1251.166870,179.000000 1252.808105,179.000000 1254.449341,179.000000   C1279.936523,179.000000 1305.424194,178.926193 1330.910400,179.078415   C1334.799561,179.101654 1336.529175,178.090546 1336.031128,174.026459   C1335.553345,170.128159 1335.399048,166.191360 1334.988647,162.283463   C1333.389038,147.053680 1327.135376,134.073349 1314.476196,125.288330   C1291.615479,109.423714 1256.432983,112.837547 1239.713745,138.812439   C1229.440063,154.773514 1226.565063,172.048828 1230.999878,191.394348  M880.829895,118.035233   C880.090637,118.355705 879.370972,118.735077 878.609253,118.987839   C866.952942,122.855927 857.726685,129.876617 850.979431,140.158798   C841.578979,154.484116 839.112732,170.174545 842.032288,186.810699   C845.269287,205.256027 855.253784,219.216660 871.762329,227.817886   C882.088440,233.197968 893.333130,234.502350 905.235657,233.199203   C924.982544,231.037155 938.720154,220.807571 947.908752,203.984039   C954.384949,192.126526 956.006104,179.357712 954.150818,165.796616   C951.822510,148.777817 943.861023,135.446625 930.101440,125.681107   C915.359253,115.218216 898.878418,113.886787 880.829895,118.035233  M1877.031738,192.107498   C1877.360229,193.011414 1877.693115,193.913834 1878.016724,194.819473   C1889.297485,226.380890 1916.331299,237.741943 1944.351807,232.692596   C1956.849731,230.440460 1967.435791,224.099304 1975.665527,213.948593   C1983.579468,204.187592 1987.970825,193.133041 1988.919556,180.790176   C1989.752686,169.952438 1988.597778,159.227432 1983.951904,149.218521   C1978.036865,136.475143 1969.185913,126.615204 1955.976318,120.917984   C1945.019287,116.192291 1933.910156,115.161789 1922.099976,116.846489   C1909.964966,118.577530 1899.700684,123.886604 1891.485352,132.306030   C1880.302368,143.766998 1875.231201,158.285278 1875.113281,174.262680   C1875.071655,179.919739 1876.334961,185.586426 1877.031738,192.107498  M2630.370605,115.999985   C2625.789307,116.333008 2621.160400,116.357399 2616.635254,117.054375   C2600.192383,119.586838 2587.844482,128.453735 2579.243652,142.460999   C2572.379639,153.639771 2570.334717,165.994553 2570.926514,179.031754   C2571.595947,193.775253 2576.710449,206.666550 2586.846436,217.154190   C2595.996826,226.621887 2607.417480,231.608810 2620.794434,233.234695   C2632.587646,234.668091 2643.663086,232.987076 2653.807373,227.844315   C2675.232422,216.982666 2684.270508,197.855286 2684.655273,174.838043   C2684.841797,163.665024 2682.390137,152.438797 2675.966064,142.544724   C2665.406982,126.281693 2650.727295,117.238998 2630.370605,115.999985  M986.714417,123.032211   C985.787170,123.690186 984.867432,124.359070 983.931580,125.004463   C974.892944,131.237595 968.226440,139.240540 963.731934,149.422150   C959.492859,159.025314 958.842529,168.890823 958.970886,179.067505   C959.155762,193.724472 964.494812,206.485870 974.497314,216.757309   C987.300354,229.904663 1003.152344,235.091827 1021.755554,233.169846   C1039.704102,231.315475 1053.342407,223.264832 1063.081909,208.361954   C1070.372192,197.206711 1072.453125,184.845398 1072.160767,171.604950   C1071.856812,157.838745 1067.376831,145.878128 1058.862061,135.492584   C1041.761963,114.635429 1010.584351,110.190186 986.714417,123.032211  M2693.000000,194.257965   C2694.655762,208.598389 2698.304688,222.355377 2712.633789,228.918915   C2734.366455,238.873901 2753.685547,234.305832 2770.201172,215.750900   C2770.201172,220.984634 2770.201172,225.390274 2770.201172,229.695145   C2776.663086,229.695145 2782.731689,229.695145 2788.706787,229.695145   C2788.706787,192.670486 2788.706787,155.951401 2788.706787,119.302536   C2782.008301,119.302536 2775.606445,119.302536 2769.000000,119.302536   C2769.000000,140.570847 2768.865479,161.538498 2769.046631,182.503433   C2769.169678,196.713928 2759.162354,212.534744 2743.772949,215.623825   C2734.777588,217.429306 2723.576416,215.078186 2717.070801,205.640701   C2712.857910,199.529510 2712.302490,192.503540 2712.143311,185.666946   C2711.720703,167.521881 2712.000000,149.360474 2712.000000,131.205566   C2712.000000,127.255554 2712.000000,123.305542 2712.000000,119.234375   C2705.481934,119.234375 2699.415771,119.234375 2693.000000,119.234375   C2693.000000,144.079361 2693.000000,168.691666 2693.000000,194.257965  M1701.999756,156.511383   C1695.500732,173.209793 1689.001831,189.908188 1682.351685,206.995209   C1671.010498,177.524033 1659.783325,148.348938 1648.580200,119.236755   C1641.701660,119.236755 1634.940552,119.236755 1628.036621,119.236755   C1628.092285,120.130074 1627.964722,120.847206 1628.197754,121.416702   C1633.430664,134.197968 1638.789917,146.928177 1643.949341,159.738831   C1652.708008,181.485580 1661.371094,203.270981 1670.007812,225.066513   C1671.382568,228.536240 1673.084473,230.689453 1677.424805,230.110611   C1681.351807,229.586899 1685.412109,230.144501 1689.395386,229.912384   C1690.613525,229.841385 1692.405029,229.027405 1692.852173,228.055756   C1695.403809,222.512787 1697.677368,216.838913 1699.955811,211.173538   C1708.343506,190.317841 1716.663940,169.435104 1725.075806,148.589172   C1729.012085,138.834534 1733.099365,129.140854 1737.220947,119.171219   C1729.808960,119.171219 1723.009033,119.171219 1716.763184,119.171219   C1711.766113,131.574875 1706.904053,143.643570 1701.999756,156.511383  M2284.160400,116.002853   C2268.320312,115.743645 2255.455078,121.135284 2246.874023,136.513168   C2246.874023,130.046600 2246.874023,124.661049 2246.874023,119.272949   C2240.738037,119.272949 2235.003906,119.272949 2229.268311,119.272949   C2229.268311,156.270126 2229.268311,192.993698 2229.268311,229.721069   C2235.608398,229.721069 2241.675293,229.721069 2248.000000,229.721069   C2248.000000,209.978699 2247.781982,190.510101 2248.137695,171.051987   C2248.239502,165.491150 2249.205322,159.656113 2251.178955,154.482315   C2254.817383,144.944595 2265.601562,134.850311 2277.395508,136.051147   C2282.483887,136.569260 2287.515137,137.646713 2293.000000,138.539673   C2293.000000,135.224228 2293.000000,131.609131 2293.000000,127.994041   C2293.000000,118.875465 2293.000000,118.875465 2284.160400,116.002853  M2531.026855,155.892990   C2531.551758,154.886536 2532.025391,153.849228 2532.609131,152.878235   C2538.965576,142.305344 2547.280762,134.806946 2560.624268,136.078323   C2565.022705,136.497391 2569.333252,137.833008 2573.833496,138.780991   C2573.833496,131.904297 2573.833496,125.109993 2573.833496,118.068436   C2554.328369,112.859520 2539.038818,118.278694 2527.660645,136.199585   C2527.660645,129.879150 2527.660645,124.464439 2527.660645,119.208969   C2521.634033,119.208969 2516.014160,119.208969 2510.221436,119.208969   C2510.221436,156.152832 2510.221436,192.887558 2510.221436,229.765152   C2516.513428,229.765152 2522.582275,229.765152 2529.000000,229.765152   C2529.000000,227.905701 2529.000000,226.276337 2529.000000,224.646973   C2529.000000,205.647583 2528.896729,186.647156 2529.090332,167.649780   C2529.127930,163.998398 2530.330078,160.358902 2531.026855,155.892990  M1200.000000,167.500000   C1200.000000,188.255234 1200.000000,209.010468 1200.000000,229.698669   C1206.653687,229.698669 1212.722656,229.698669 1218.709473,229.698669   C1218.709473,178.010712 1218.709473,126.624603 1218.709473,75.301254   C1212.346558,75.301254 1206.277588,75.301254 1200.000000,75.301254   C1200.000000,105.901337 1200.000000,136.200668 1200.000000,167.500000  M1860.380371,230.000000   C1861.820801,230.000000 1863.261230,230.000000 1864.749512,230.000000   C1864.749512,178.095947 1864.749512,126.707588 1864.749512,75.261719   C1858.428345,75.261719 1852.360962,75.261719 1846.254639,75.261719   C1846.254639,126.912354 1846.254639,178.300858 1846.254639,230.000000   C1850.803223,230.000000 1855.103882,230.000000 1860.380371,230.000000  z"/>
<path fill="#101011" opacity="1.000000" stroke="none" d=" M194.531464,1.000000   C199.644196,2.482233 204.407532,3.670897 208.911438,5.498798   C226.102356,12.475683 237.959106,24.933485 243.638168,42.438248   C251.789749,67.564056 246.320602,90.101532 227.541351,108.650993   C220.809067,115.300919 212.367401,120.235855 204.630173,125.849159   C193.242203,134.111038 181.786362,142.279419 170.398560,150.459518   C188.911301,163.798676 207.927078,176.657883 225.945328,190.789001   C237.338165,199.724030 243.510345,212.528885 246.056931,226.987427   C248.675156,241.852753 246.360611,255.811279 238.978714,268.854370   C229.686478,285.272766 215.647537,295.364716 197.109833,298.985474   C176.242294,303.061310 158.314194,296.825592 141.559433,284.269287   C115.400352,264.665192 88.679321,245.810059 62.162533,226.684540   C50.222603,218.072739 38.047115,209.780075 26.257385,200.969437   C12.947970,191.023117 4.059741,178.130096 1.382277,161.139709   C1.000000,154.312363 1.000000,147.624710 1.382277,140.328827   C3.990632,123.440422 12.157325,110.396484 24.979082,100.721512   C43.953705,86.403740 63.532360,72.886963 82.839600,59.009342   C96.761299,49.002731 110.589462,38.864285 124.591881,28.972237   C135.003326,21.617039 145.367294,14.131445 156.268173,7.559399   C161.569916,4.363025 168.052155,3.124707 174.000000,1.000000   C180.687637,1.000000 187.375290,1.000000 194.531464,1.000000  M60.306351,212.202530   C91.526588,234.640366 122.734108,257.095947 153.973572,279.506989   C165.862808,288.036285 178.840027,291.943695 193.569702,288.979675   C216.115845,284.442749 233.353745,267.840881 235.829727,243.680923   C237.889954,223.578003 230.528046,207.061874 213.765244,195.047134   C173.993729,166.541000 134.271194,137.966324 94.584076,109.342804   C81.472755,99.886528 67.032417,97.074867 51.330921,100.079018   C31.059694,103.957481 12.159413,125.143066 11.049495,145.556137   C10.002077,164.819717 17.193907,180.534836 32.593304,192.221878   C41.473530,198.961349 50.649582,205.311005 60.306351,212.202530  M73.639763,79.127968   C69.731743,81.997566 65.823723,84.867157 60.911678,88.473984   C62.948799,88.796600 63.551064,88.994759 64.144394,88.970886   C78.432274,88.395798 90.650780,93.663002 101.978638,101.910225   C121.358231,116.019501 140.890442,129.919128 160.327881,143.884766   C160.923737,143.597748 161.407944,143.445297 161.799789,143.164139   C180.062714,130.060013 198.575043,117.285461 216.505386,103.740585   C236.872742,88.354744 240.960312,62.060284 231.254333,40.730995   C217.621353,10.772014 179.167755,3.313811 154.537369,20.997435   C127.757042,40.224628 101.004967,59.491192 73.639763,79.127968  z"/>
<path fill="#10110F" opacity="1.000000" stroke="none" d=" M367.531433,0.999999   C373.366241,2.855008 379.242523,3.865754 383.994873,6.736878   C394.613800,13.152296 404.834961,20.268419 414.927643,27.504332   C441.629700,46.648224 468.224609,65.942711 494.761902,85.314590   C504.721741,92.585106 514.818726,99.759712 524.098083,107.844650   C533.435242,115.979897 537.868958,127.268227 539.941772,139.268860   C543.983398,162.667435 536.751038,182.541382 519.139099,198.073074   C509.948486,206.178085 499.393372,212.742630 489.407227,219.937271   C469.459320,234.308990 449.495758,248.659180 429.505859,262.972443   C415.700867,272.857178 402.097809,283.057617 387.901611,292.348602   C380.341553,297.296417 371.389191,299.449951 362.213043,300.017303   C350.455414,300.744232 339.051880,299.276306 328.530334,293.803223   C309.892273,284.108124 298.154907,268.585815 295.250458,248.019485   C291.442474,221.055145 301.647125,199.587494 324.361420,184.024200   C340.104675,173.237320 355.419800,161.825623 371.142151,150.538055   C356.188263,139.681595 341.687531,128.550247 326.557800,118.352013   C313.325226,109.432533 302.638275,98.716492 297.838318,83.279564   C291.547699,63.048668 293.763092,43.762974 306.290009,26.286705   C314.805969,14.406121 326.149506,6.346286 340.507141,2.849931   C342.233398,2.429551 343.986725,2.120368 345.863770,1.379825   C353.020966,1.000000 360.041901,1.000000 367.531433,0.999999  M530.108276,150.497604   C530.094910,133.754135 523.788513,119.687607 510.339020,109.874542   C468.913422,79.649460 427.146545,49.892059 385.504852,19.963280   C373.601898,11.408368 359.859253,9.915755 346.324341,12.633606   C324.963409,16.922955 311.114594,30.783962 306.476746,51.997765   C301.896820,72.946434 308.625275,90.824402 325.705383,104.189369   C333.828857,110.545883 342.406097,116.323044 350.787140,122.349724   C383.500122,145.873169 416.048462,169.630798 449.002289,192.811966   C465.801086,204.628937 484.177979,205.673508 502.407379,196.216446   C520.287048,186.940826 529.407532,171.654999 530.108276,150.497604  M341.180511,287.655975   C345.688263,288.436768 350.179626,289.757782 354.706879,289.894775   C367.180328,290.272186 378.367126,286.272430 388.475403,278.973022   C412.691742,261.485809 436.968933,244.082855 461.221405,226.645660   C467.105530,222.415054 472.989014,218.183594 479.905304,213.210052   C466.632599,212.304138 455.140533,209.614349 445.144623,202.769485   C433.648438,194.897278 422.428619,186.621155 411.098267,178.507187   C401.014160,171.285675 390.943024,164.046021 380.941376,156.868347   C377.150299,159.592331 373.787872,161.998230 370.435852,164.418549   C355.088348,175.500137 339.522705,186.294968 324.457703,197.748306   C308.006165,210.255783 300.717926,233.849686 307.029755,252.520264   C312.707794,269.316101 323.683655,281.127991 341.180511,287.655975  z"/>
<path fill="#FFFFFF" opacity="1.000000" stroke="none" d=" M173.531342,1.000000   C168.052155,3.124707 161.569916,4.363025 156.268173,7.559399   C145.367294,14.131445 135.003326,21.617039 124.591881,28.972237   C110.589462,38.864285 96.761299,49.002731 82.839600,59.009342   C63.532360,72.886963 43.953705,86.403740 24.979082,100.721512   C12.157325,110.396484 3.990632,123.440422 1.382277,139.860291   C1.000000,93.731705 1.000000,47.463409 1.000000,1.000000   C58.354080,1.000000 115.708382,1.000000 173.531342,1.000000  z"/>
<path fill="#1E1E1E" opacity="1.000000" stroke="none" d=" M3004.000000,207.533142   C2997.074463,224.385223 2984.064941,231.219391 2966.953369,233.190018   C2950.974854,235.030182 2936.872559,231.476929 2924.982422,221.104385   C2920.396973,217.104309 2917.672607,210.918091 2914.393555,205.548904   C2914.035889,204.963013 2915.325684,202.590057 2916.364990,202.066833   C2920.916016,199.776260 2925.656250,197.861786 2930.729004,195.634552   C2934.542725,204.065262 2940.194824,210.654663 2948.613281,213.735443   C2959.416504,217.688889 2970.610596,218.137299 2980.190186,210.798645   C2986.564209,205.915680 2987.377686,197.085464 2979.705322,191.002060   C2971.849121,184.773087 2962.030762,183.513275 2952.740479,181.024628   C2942.203613,178.202057 2932.127197,174.805084 2924.099121,166.723251   C2915.089111,157.652908 2915.956055,134.768356 2928.081055,125.695724   C2944.671875,113.281593 2973.954590,112.708214 2989.705811,125.096970   C2994.687744,129.015442 2998.553223,134.353302 3003.584961,139.743484   C2996.395752,143.040695 2990.646484,145.677673 2984.902832,148.311966   C2977.876953,133.809052 2958.115479,129.303711 2944.370605,136.951538   C2939.983398,139.392578 2936.748535,142.840988 2937.077393,148.160721   C2937.390137,153.225327 2940.019775,157.265320 2944.929932,158.920593   C2953.591309,161.840271 2962.381348,164.383606 2971.146240,166.987946   C2982.609619,170.394119 2993.807129,174.241058 3000.582520,185.144791   C3001.822021,187.139542 3002.396484,189.547699 3003.639160,191.882507   C3004.000000,197.022095 3004.000000,202.044189 3004.000000,207.533142  z"/>
<path fill="#1E1E1E" opacity="1.000000" stroke="none" d=" M710.727478,114.767288   C692.322754,140.159653 694.848694,179.142426 720.026672,200.443192   C734.444824,212.641083 751.107300,216.888260 770.010376,214.216415   C783.601807,212.295319 794.804016,206.762756 803.767212,196.655106   C811.545349,187.883804 815.136475,177.308533 816.273743,165.000000   C806.520752,165.000000 797.110596,165.000000 787.700439,165.000000   C778.372620,165.000000 769.044800,165.000000 759.358643,165.000000   C759.358643,159.177979 759.358643,153.436569 759.358643,147.345337   C784.191223,147.345337 809.257874,147.345337 834.742188,147.345337   C837.593140,168.369232 833.831177,187.998138 820.979797,205.471237   C809.150818,221.554245 792.530457,229.939133 773.348938,232.840683   C749.892639,236.388855 727.855103,231.581299 709.244263,216.466125   C694.349670,204.369186 684.526733,188.763260 680.850525,169.364365   C677.161011,149.895309 679.348328,131.489441 688.521973,114.058380   C699.468140,93.259415 716.492249,79.580406 739.348877,74.147247   C759.941833,69.252159 780.253296,71.040863 799.142883,81.163551   C805.728455,84.692680 811.449036,89.835800 817.680359,94.325150   C812.209595,99.663033 807.708618,104.054749 803.125000,108.527069   C795.265198,100.244545 785.446167,94.639618 773.667786,91.792725   C760.757324,88.672218 748.639221,90.189102 736.491211,94.843819   C725.964600,98.877243 717.562317,105.454918 710.727478,114.767288  z"/>
<path fill="#1E1E1E" opacity="1.000000" stroke="none" d=" M2360.748779,99.670845   C2367.292725,90.518700 2376.255859,84.971794 2385.624023,80.021767   C2400.134521,72.354706 2415.903320,70.580208 2431.824219,72.172867   C2450.010742,73.992172 2466.263184,80.870934 2478.888184,94.394608   C2474.139160,98.959953 2469.502197,103.417725 2464.657471,108.075119   C2457.466797,99.762260 2447.298584,94.458237 2435.441162,91.719353   C2416.952148,87.448830 2400.424316,91.699005 2385.243896,102.312653   C2372.635010,111.128304 2365.302002,123.801826 2362.423340,138.462936   C2357.822266,161.897064 2363.257812,183.125351 2381.246094,199.546417   C2402.394775,218.852203 2434.082520,220.351898 2456.928955,204.916473   C2469.870117,196.173279 2476.583984,183.379913 2478.015381,167.829437   C2478.090088,167.018646 2478.351562,166.225052 2478.604492,165.063782   C2459.920654,165.063782 2441.210205,165.063782 2422.251953,165.063782   C2422.251953,158.952362 2422.251953,153.217651 2422.251953,147.239853   C2447.080322,147.239853 2471.820801,147.239853 2496.800537,147.239853   C2499.780518,164.014908 2497.603271,180.156784 2489.854004,195.068787   C2479.168457,215.632141 2461.833740,227.656799 2439.009521,232.058167   C2419.449219,235.830078 2400.847656,233.546829 2383.370361,223.995972   C2360.925537,211.730759 2347.106689,193.054764 2343.023438,167.618134   C2339.334473,144.639984 2343.188721,123.227379 2357.011230,104.067459   C2358.062012,102.610649 2359.356445,101.329659 2360.748779,99.670845  z"/>
<path fill="#1E1E1E" opacity="1.000000" stroke="none" d=" M1170.732056,265.695374   C1162.083130,273.520325 1152.241333,278.075989 1141.058350,279.457092   C1118.155762,282.285583 1095.642944,276.874176 1083.178955,253.489975   C1082.354858,251.943832 1081.925903,250.186981 1081.257812,248.378098   C1086.899536,246.031860 1092.639771,243.644714 1098.522217,241.198395   C1100.553711,244.156799 1102.457275,247.333038 1104.751343,250.196274   C1112.524658,259.897980 1122.641235,263.283661 1134.977539,262.160889   C1142.932007,261.436890 1149.816040,259.065796 1155.658936,253.791397   C1162.574829,247.548447 1164.836426,239.059982 1165.885986,230.312912   C1166.507935,225.128525 1165.999634,219.808533 1165.999634,213.999695   C1156.567261,225.683731 1145.236572,231.667007 1130.516724,232.183212   C1116.322388,232.680969 1104.106567,228.511505 1093.913574,219.182861   C1085.786255,211.744843 1080.606934,202.035812 1078.083252,191.278656   C1075.174927,178.881958 1075.446777,166.461090 1078.954102,154.087250   C1084.120239,135.861984 1100.428711,119.588203 1119.129517,116.840073   C1130.886108,115.112404 1141.899048,116.076324 1152.050293,122.127487   C1157.064209,125.116356 1161.356689,129.315628 1165.996826,132.984024   C1165.996826,128.804443 1165.996826,124.094353 1165.996826,119.202644   C1172.024048,119.202644 1177.642578,119.202644 1184.000000,119.202644   C1184.000000,120.816093 1184.000000,122.560005 1184.000000,124.303917   C1184.000000,160.287430 1184.051147,196.271057 1183.971191,232.254410   C1183.944580,244.226547 1179.812134,254.734451 1171.834106,263.706543   C1171.423950,264.167786 1171.244019,264.833801 1170.732056,265.695374  M1159.588989,198.922913   C1164.258545,190.316849 1166.779297,181.178741 1165.974731,171.340927   C1164.878174,157.932617 1160.811768,146.418427 1148.434082,138.615906   C1134.435181,129.791397 1112.622314,133.519913 1102.966919,148.112991   C1096.536865,157.831482 1094.515015,168.306366 1095.872437,179.876785   C1097.036133,189.796295 1100.465698,198.123657 1107.637451,205.271896   C1122.733643,220.318649 1147.886353,216.744461 1159.588989,198.922913  z"/>
<path fill="#1E1E1E" opacity="1.000000" stroke="none" d=" M1396.000000,215.993576   C1396.000000,168.859268 1396.000000,122.223335 1396.000000,75.000000   C1401.653076,75.000000 1407.084473,75.000000 1412.515747,75.000000   C1423.680420,75.000000 1434.849365,74.802338 1446.008789,75.046410   C1462.671509,75.410851 1478.465820,79.212494 1492.184326,89.080711   C1507.501587,100.098915 1516.292847,115.415276 1519.995361,133.768509   C1523.252563,149.913788 1522.557129,165.782852 1517.200439,181.487305   C1508.534180,206.894485 1490.631348,221.931183 1464.964844,227.834488   C1457.384888,229.577911 1449.356445,229.749908 1441.518433,229.910782   C1426.548828,230.218033 1411.568359,230.000000 1396.000000,230.000000   C1396.000000,225.358307 1396.000000,220.925125 1396.000000,215.993576  M1481.410767,104.941330   C1461.453735,89.935944 1438.398438,94.737587 1416.366699,94.035950   C1416.366699,133.788940 1416.366699,172.852692 1416.366699,211.000244   C1428.816895,211.000244 1440.918579,211.472458 1452.966675,210.870667   C1465.633789,210.237946 1477.140869,205.495255 1485.981323,196.340408   C1502.463745,179.271927 1504.432373,158.225204 1500.534546,136.120804   C1498.331665,123.627312 1491.579956,113.579865 1481.410767,104.941330  z"/>
<path fill="#1E1E1E" opacity="1.000000" stroke="none" d=" M2898.789062,133.290817   C2908.043213,144.788742 2912.779541,157.495117 2913.068848,172.000626   C2913.333984,185.300598 2911.378174,198.005005 2904.080078,209.324753   C2895.273193,222.984879 2883.108643,231.169250 2866.472412,233.194077   C2851.555176,235.009689 2839.056641,230.872025 2827.939941,221.380737   C2826.278320,219.962097 2825.017578,218.073853 2823.064453,215.817154   C2823.064453,236.501190 2823.064453,256.518005 2823.064453,276.765137   C2816.584717,276.765137 2810.518311,276.765137 2804.225098,276.765137   C2804.225098,224.249130 2804.225098,171.868805 2804.225098,119.244110   C2810.062500,119.244110 2815.796387,119.244110 2821.939453,119.244110   C2821.939453,124.381821 2821.939453,129.434097 2821.939453,133.709076   C2827.289795,129.642120 2832.285400,124.647072 2838.260742,121.529510   C2855.545654,112.511040 2872.677002,114.213432 2888.930664,124.565605   C2892.488281,126.831367 2895.356689,130.178787 2898.789062,133.290817  M2844.523438,136.933441   C2839.681641,140.959671 2834.009277,144.322021 2830.158447,149.140198   C2819.795654,162.105957 2819.547607,186.796448 2830.554932,201.331558   C2844.912354,220.289963 2871.435303,221.826355 2885.859863,200.977264   C2896.860352,185.076767 2896.904053,167.934982 2887.507080,151.084030   C2879.208740,136.203354 2861.247070,129.689301 2844.523438,136.933441  z"/>
<path fill="#1E1E1E" opacity="1.000000" stroke="none" d=" M1999.000000,170.000000   C1999.006836,153.174408 1999.012329,136.848816 1999.028564,120.523239   C1999.028931,120.211349 1999.154297,119.899574 1999.284058,119.294937   C2004.959106,119.294937 2010.693726,119.294937 2016.822510,119.294937   C2016.822510,124.298615 2016.822510,129.367981 2016.822510,134.523590   C2020.754395,130.991882 2024.219482,127.440224 2028.119995,124.457970   C2039.985596,115.385521 2053.582031,114.088646 2067.532471,117.340424   C2088.561523,122.242104 2104.409912,141.471359 2107.151367,162.802429   C2108.880127,176.255203 2108.310791,189.326263 2102.855469,201.613022   C2095.091797,219.099243 2082.169189,230.403870 2062.372803,233.108856   C2046.195068,235.319351 2032.656860,230.730606 2021.103394,219.551834   C2019.758057,218.250168 2018.707031,216.644394 2018.000000,215.772293   C2018.000000,225.604355 2018.000000,235.799393 2018.000000,245.994415   C2018.000000,256.134338 2018.000000,266.274261 2018.000000,276.706268   C2011.705933,276.706268 2005.637695,276.706268 1999.000000,276.706268   C1999.000000,241.332199 1999.000000,205.916107 1999.000000,170.000000  M2035.069458,210.579498   C2052.707520,221.692413 2071.997559,215.331665 2082.308350,198.967041   C2088.011475,189.915466 2089.813721,179.697006 2088.181885,168.710876   C2086.597900,158.047791 2082.836182,149.074875 2074.527344,141.924866   C2059.118652,128.665573 2036.804321,131.888535 2025.071533,148.965347   C2018.225830,158.929092 2015.770020,169.904617 2017.834717,182.189911   C2019.804688,193.912079 2024.641968,203.355179 2035.069458,210.579498  z"/>
<path fill="#1E1E1E" opacity="1.000000" stroke="none" d=" M1774.812744,214.352173   C1785.878540,217.527481 1796.271362,216.621277 1805.206421,209.800323   C1810.060547,206.094666 1813.763062,200.880463 1818.216064,196.098694   C1823.077759,198.547974 1828.385742,201.222092 1833.674072,203.886322   C1827.169312,219.752777 1809.468994,231.760529 1792.690430,233.253021   C1780.628296,234.325943 1769.219727,233.269699 1758.717285,227.788773   C1743.492310,219.843262 1734.504272,206.867706 1730.935181,189.959381   C1727.850830,175.346664 1728.787842,161.185074 1735.058228,147.662476   C1742.645142,131.300995 1754.549194,120.059059 1773.087036,116.944809   C1786.378662,114.711937 1798.798340,116.373146 1810.737549,122.896385   C1823.666748,129.960602 1830.494385,141.360611 1833.831787,154.952530   C1835.684204,162.496277 1835.834351,170.457977 1836.830078,178.895599   C1806.987671,178.895599 1778.123779,178.895599 1749.271729,178.895599   C1749.077271,195.992493 1760.076416,210.208740 1774.812744,214.352173  M1759.988647,143.518616   C1754.796753,148.884537 1751.791382,155.370377 1749.958862,162.795441   C1771.986084,162.795441 1793.753052,162.795441 1815.521484,162.805527   C1813.736938,148.396240 1806.463257,138.031677 1792.049194,134.774689   C1780.559692,132.178543 1769.190430,133.311279 1759.988647,143.518616  z"/>
<path fill="#1E1E1E" opacity="1.000000" stroke="none" d=" M2121.255859,141.329376   C2131.504639,125.179054 2145.572510,116.419250 2164.617432,115.956512   C2177.907959,115.633591 2190.165771,118.812096 2200.413574,127.251587   C2210.412109,135.485794 2215.837891,146.766632 2217.902344,159.448135   C2218.922852,165.715759 2218.925293,172.149078 2219.424072,179.000000   C2204.195801,179.000000 2189.754150,179.000000 2175.312256,179.000000   C2161.015381,179.000000 2146.718506,179.000000 2132.453613,179.000000   C2131.350586,191.864685 2140.437988,207.932281 2154.979004,213.453629   C2168.051025,218.417038 2186.166016,218.714813 2200.776123,195.880676   C2206.068359,198.544846 2211.378418,201.217957 2216.667969,203.880798   C2210.204346,219.723022 2192.471680,231.764832 2175.691162,233.253220   C2163.627686,234.323212 2152.217285,233.270828 2141.713379,227.786789   C2126.488037,219.837585 2117.446289,206.873413 2113.950928,189.945129   C2110.939209,175.360229 2112.167236,161.290070 2118.014893,147.621414   C2118.892334,145.570999 2120.023926,143.629303 2121.255859,141.329376  M2157.589600,134.888870   C2142.932617,138.458405 2136.941650,149.553406 2132.917236,162.837555   C2155.182373,162.837555 2176.979492,162.837555 2198.687500,162.837555   C2197.591797,151.997711 2192.417725,143.797699 2183.433838,137.962143   C2175.592041,132.868607 2166.869141,133.807526 2157.589600,134.888870  z"/>
<path fill="#1E1E1E" opacity="1.000000" stroke="none" d=" M1537.215332,209.588562   C1530.518433,197.486420 1527.090088,184.947235 1528.021729,171.432083   C1529.492798,150.093170 1537.928467,132.396652 1557.068970,121.731621   C1567.420532,115.963768 1579.031006,114.997459 1591.136963,116.741554   C1603.458862,118.516762 1613.226562,123.820572 1621.364258,132.848785   C1629.004272,141.324982 1632.826416,151.401627 1633.998901,162.612091   C1634.338867,165.860962 1634.881836,169.106232 1634.955078,172.361633   C1635.104126,178.995041 1634.998535,178.999420 1628.587036,178.999649   C1603.443359,179.000504 1578.299683,179.000000 1553.156006,179.000000   C1551.534058,179.000000 1549.911987,179.000000 1548.333740,179.000000   C1547.162476,193.004730 1556.547974,208.438873 1571.519653,213.679306   C1587.094727,219.130951 1602.418213,217.106750 1616.405518,196.255630   C1621.610596,198.626801 1626.824585,201.002060 1632.235840,203.467163   C1629.803467,212.523682 1623.118530,218.199448 1616.680420,223.515182   C1606.348877,232.045807 1593.512451,234.523605 1580.569458,233.809708   C1563.637939,232.875824 1549.159546,226.182571 1539.157471,211.684616   C1538.693115,211.011536 1537.991699,210.502136 1537.215332,209.588562  M1556.596802,163.000000   C1575.698608,163.000000 1594.800537,163.000000 1613.916504,163.000000   C1613.382324,147.783829 1602.110596,135.751404 1587.509644,134.049774   C1564.856689,131.409744 1552.170654,145.721634 1549.132080,163.000000   C1551.333862,163.000000 1553.481445,163.000000 1556.596802,163.000000  z"/>
<path fill="#1E1E1E" opacity="1.000000" stroke="none" d=" M1230.997314,190.958420   C1226.565063,172.048828 1229.440063,154.773514 1239.713745,138.812439   C1256.432983,112.837547 1291.615479,109.423714 1314.476196,125.288330   C1327.135376,134.073349 1333.389038,147.053680 1334.988647,162.283463   C1335.399048,166.191360 1335.553345,170.128159 1336.031128,174.026459   C1336.529175,178.090546 1334.799561,179.101654 1330.910400,179.078415   C1305.424194,178.926193 1279.936523,179.000000 1254.449341,179.000000   C1252.808105,179.000000 1251.166870,179.000000 1249.595947,179.000000   C1247.179810,189.165100 1256.097534,207.819946 1272.258789,213.621506   C1288.026001,219.281616 1304.618042,216.444641 1317.478882,195.953384   C1321.979492,198.149445 1326.635620,200.211197 1331.032593,202.726303   C1332.034058,203.299133 1333.021851,206.042618 1332.525513,206.769791   C1322.841553,220.957169 1310.973511,231.452820 1292.617676,233.222015   C1280.558716,234.384293 1269.176392,233.208817 1258.645996,227.759979   C1243.880615,220.119659 1234.763062,207.662720 1230.997314,190.958420  M1263.510498,163.000000   C1280.598511,163.000000 1297.686523,163.000000 1314.751221,163.000000   C1315.342041,148.820572 1303.034546,135.849503 1289.851196,134.074722   C1266.127930,130.881042 1252.898438,146.389099 1250.101807,163.000000   C1254.284546,163.000000 1258.399902,163.000000 1263.510498,163.000000  z"/>
<path fill="#1E1E1E" opacity="1.000000" stroke="none" d=" M881.252930,118.018845   C898.878418,113.886787 915.359253,115.218216 930.101440,125.681107   C943.861023,135.446625 951.822510,148.777817 954.150818,165.796616   C956.006104,179.357712 954.384949,192.126526 947.908752,203.984039   C938.720154,220.807571 924.982544,231.037155 905.235657,233.199203   C893.333130,234.502350 882.088440,233.197968 871.762329,227.817886   C855.253784,219.216660 845.269287,205.256027 842.032288,186.810699   C839.112732,170.174545 841.578979,154.484116 850.979431,140.158798   C857.726685,129.876617 866.952942,122.855927 878.609253,118.987839   C879.370972,118.735077 880.090637,118.355705 881.252930,118.018845  M874.070984,207.584335   C878.649475,209.844421 883.040283,212.675293 887.842651,214.254807   C900.898926,218.549088 912.383545,215.119614 922.445801,206.066132   C932.302429,197.197723 935.552124,186.033691 935.116516,173.052841   C934.675171,159.901016 930.149658,149.215530 919.618469,141.068817   C903.507324,128.605652 880.261780,132.502701 868.334778,148.456207   C855.384705,165.778214 857.322083,192.361115 874.070984,207.584335  z"/>
<path fill="#1E1E1E" opacity="1.000000" stroke="none" d=" M1877.017090,191.678101   C1876.334961,185.586426 1875.071655,179.919739 1875.113281,174.262680   C1875.231201,158.285278 1880.302368,143.766998 1891.485352,132.306030   C1899.700684,123.886604 1909.964966,118.577530 1922.099976,116.846489   C1933.910156,115.161789 1945.019287,116.192291 1955.976318,120.917984   C1969.185913,126.615204 1978.036865,136.475143 1983.951904,149.218521   C1988.597778,159.227432 1989.752686,169.952438 1988.919556,180.790176   C1987.970825,193.133041 1983.579468,204.187592 1975.665527,213.948593   C1967.435791,224.099304 1956.849731,230.440460 1944.351807,232.692596   C1916.331299,237.741943 1889.297485,226.380890 1878.016724,194.819473   C1877.693115,193.913834 1877.360229,193.011414 1877.017090,191.678101  M1969.996826,171.796539   C1969.330933,168.477112 1968.794678,165.125351 1967.976318,161.843918   C1964.633911,148.440842 1955.843628,139.351273 1943.195679,135.370132   C1930.088379,131.244385 1917.213013,133.797318 1906.968872,143.665436   C1896.474731,153.774307 1892.918701,166.361313 1894.914673,180.857391   C1896.996704,195.976135 1904.074951,206.810516 1918.375732,213.167877   C1932.769409,219.566620 1949.965088,214.258926 1958.925781,204.453857   C1967.062256,195.550751 1970.097290,184.616882 1969.996826,171.796539  z"/>
<path fill="#1E1E1E" opacity="1.000000" stroke="none" d=" M2630.845703,115.999992   C2650.727295,117.238998 2665.406982,126.281693 2675.966064,142.544724   C2682.390137,152.438797 2684.841797,163.665024 2684.655273,174.838043   C2684.270508,197.855286 2675.232422,216.982666 2653.807373,227.844315   C2643.663086,232.987076 2632.587646,234.668091 2620.794434,233.234695   C2607.417480,231.608810 2595.996826,226.621887 2586.846436,217.154190   C2576.710449,206.666550 2571.595947,193.775253 2570.926514,179.031754   C2570.334717,165.994553 2572.379639,153.639771 2579.243652,142.460999   C2587.844482,128.453735 2600.192383,119.586838 2616.635254,117.054375   C2621.160400,116.357399 2625.789307,116.333008 2630.845703,115.999992  M2625.620605,134.000000   C2613.119873,134.129303 2604.033203,140.491867 2597.023193,150.157410   C2586.936768,164.064240 2587.011719,187.289795 2598.386230,201.673218   C2612.086182,218.996979 2635.947021,221.177277 2652.252686,206.236298   C2662.089600,197.222519 2665.136230,185.777328 2665.115723,172.753967   C2665.083252,152.180313 2647.773682,132.237823 2625.620605,134.000000  z"/>
<path fill="#1E1E1E" opacity="1.000000" stroke="none" d=" M987.093445,122.989693   C1010.584351,110.190186 1041.761963,114.635429 1058.862061,135.492584   C1067.376831,145.878128 1071.856812,157.838745 1072.160767,171.604950   C1072.453125,184.845398 1070.372192,197.206711 1063.081909,208.361954   C1053.342407,223.264832 1039.704102,231.315475 1021.755554,233.169846   C1003.152344,235.091827 987.300354,229.904663 974.497314,216.757309   C964.494812,206.485870 959.155762,193.724472 958.970886,179.067505   C958.842529,168.890823 959.492859,159.025314 963.731934,149.422150   C968.226440,139.240540 974.892944,131.237595 983.931580,125.004463   C984.867432,124.359070 985.787170,123.690186 987.093445,122.989693  M980.027039,158.913086   C979.894043,159.876343 979.837341,160.857468 979.616577,161.800171   C975.641418,178.774475 977.575928,194.343613 991.202209,206.628357   C1007.781189,221.574966 1032.034180,218.523911 1044.885498,201.126526   C1054.972290,187.471558 1055.989258,171.823334 1049.605957,156.689301   C1042.852539,140.677887 1027.317871,130.623093 1007.410767,134.824829   C993.836182,137.690002 986.039673,146.536713 980.027039,158.913086  z"/>
<path fill="#1E1E1E" opacity="1.000000" stroke="none" d=" M2693.000000,193.780960   C2693.000000,168.691666 2693.000000,144.079361 2693.000000,119.234375   C2699.415771,119.234375 2705.481934,119.234375 2712.000000,119.234375   C2712.000000,123.305542 2712.000000,127.255554 2712.000000,131.205566   C2712.000000,149.360474 2711.720703,167.521881 2712.143311,185.666946   C2712.302490,192.503540 2712.857910,199.529510 2717.070801,205.640701   C2723.576416,215.078186 2734.777588,217.429306 2743.772949,215.623825   C2759.162354,212.534744 2769.169678,196.713928 2769.046631,182.503433   C2768.865479,161.538498 2769.000000,140.570847 2769.000000,119.302536   C2775.606445,119.302536 2782.008301,119.302536 2788.706787,119.302536   C2788.706787,155.951401 2788.706787,192.670486 2788.706787,229.695145   C2782.731689,229.695145 2776.663086,229.695145 2770.201172,229.695145   C2770.201172,225.390274 2770.201172,220.984634 2770.201172,215.750900   C2753.685547,234.305832 2734.366455,238.873901 2712.633789,228.918915   C2698.304688,222.355377 2694.655762,208.598389 2693.000000,193.780960  z"/>
<path fill="#1E1E1E" opacity="1.000000" stroke="none" d=" M1702.020874,156.111816   C1706.904053,143.643570 1711.766113,131.574875 1716.763184,119.171219   C1723.009033,119.171219 1729.808960,119.171219 1737.220947,119.171219   C1733.099365,129.140854 1729.012085,138.834534 1725.075806,148.589172   C1716.663940,169.435104 1708.343506,190.317841 1699.955811,211.173538   C1697.677368,216.838913 1695.403809,222.512787 1692.852173,228.055756   C1692.405029,229.027405 1690.613525,229.841385 1689.395386,229.912384   C1685.412109,230.144501 1681.351807,229.586899 1677.424805,230.110611   C1673.084473,230.689453 1671.382568,228.536240 1670.007812,225.066513   C1661.371094,203.270981 1652.708008,181.485580 1643.949341,159.738831   C1638.789917,146.928177 1633.430664,134.197968 1628.197754,121.416702   C1627.964722,120.847206 1628.092285,120.130074 1628.036621,119.236755   C1634.940552,119.236755 1641.701660,119.236755 1648.580200,119.236755   C1659.783325,148.348938 1671.010498,177.524033 1682.351685,206.995209   C1689.001831,189.908188 1695.500732,173.209793 1702.020874,156.111816  z"/>
<path fill="#1E1E1E" opacity="1.000000" stroke="none" d=" M2284.613525,116.018036   C2293.000000,118.875465 2293.000000,118.875465 2293.000000,127.994041   C2293.000000,131.609131 2293.000000,135.224228 2293.000000,138.539673   C2287.515137,137.646713 2282.483887,136.569260 2277.395508,136.051147   C2265.601562,134.850311 2254.817383,144.944595 2251.178955,154.482315   C2249.205322,159.656113 2248.239502,165.491150 2248.137695,171.051987   C2247.781982,190.510101 2248.000000,209.978699 2248.000000,229.721069   C2241.675293,229.721069 2235.608398,229.721069 2229.268311,229.721069   C2229.268311,192.993698 2229.268311,156.270126 2229.268311,119.272949   C2235.003906,119.272949 2240.738037,119.272949 2246.874023,119.272949   C2246.874023,124.661049 2246.874023,130.046600 2246.874023,136.513168   C2255.455078,121.135284 2268.320312,115.743645 2284.613525,116.018036  z"/>
<path fill="#1E1E1E" opacity="1.000000" stroke="none" d=" M2531.010742,156.303467   C2530.330078,160.358902 2529.127930,163.998398 2529.090332,167.649780   C2528.896729,186.647156 2529.000000,205.647583 2529.000000,224.646973   C2529.000000,226.276337 2529.000000,227.905701 2529.000000,229.765152   C2522.582275,229.765152 2516.513428,229.765152 2510.221436,229.765152   C2510.221436,192.887558 2510.221436,156.152832 2510.221436,119.208969   C2516.014160,119.208969 2521.634033,119.208969 2527.660645,119.208969   C2527.660645,124.464439 2527.660645,129.879150 2527.660645,136.199585   C2539.038818,118.278694 2554.328369,112.859520 2573.833496,118.068436   C2573.833496,125.109993 2573.833496,131.904297 2573.833496,138.780991   C2569.333252,137.833008 2565.022705,136.497391 2560.624268,136.078323   C2547.280762,134.806946 2538.965576,142.305344 2532.609131,152.878235   C2532.025391,153.849228 2531.551758,154.886536 2531.010742,156.303467  z"/>
<path fill="#1E1E1E" opacity="1.000000" stroke="none" d=" M1200.000000,167.000000   C1200.000000,136.200668 1200.000000,105.901337 1200.000000,75.301254   C1206.277588,75.301254 1212.346558,75.301254 1218.709473,75.301254   C1218.709473,126.624603 1218.709473,178.010712 1218.709473,229.698669   C1212.722656,229.698669 1206.653687,229.698669 1200.000000,229.698669   C1200.000000,209.010468 1200.000000,188.255234 1200.000000,167.000000  z"/>
<path fill="#1E1E1E" opacity="1.000000" stroke="none" d=" M1859.892334,230.000000   C1855.103882,230.000000 1850.803223,230.000000 1846.254639,230.000000   C1846.254639,178.300858 1846.254639,126.912354 1846.254639,75.261719   C1852.360962,75.261719 1858.428345,75.261719 1864.749512,75.261719   C1864.749512,126.707588 1864.749512,178.095947 1864.749512,230.000000   C1863.261230,230.000000 1861.820801,230.000000 1859.892334,230.000000  z"/>
<path fill="#4285F3" opacity="1.000000" stroke="none" d=" M59.999416,212.019318   C50.649582,205.311005 41.473530,198.961349 32.593304,192.221878   C17.193907,180.534836 10.002077,164.819717 11.049495,145.556137   C12.159413,125.143066 31.059694,103.957481 51.330921,100.079018   C67.032417,97.074867 81.472755,99.886528 94.584076,109.342804   C134.271194,137.966324 173.993729,166.541000 213.765244,195.047134   C230.528046,207.061874 237.889954,223.578003 235.829727,243.680923   C233.353745,267.840881 216.115845,284.442749 193.569702,288.979675   C178.840027,291.943695 165.862808,288.036285 153.973572,279.506989   C122.734108,257.095947 91.526588,234.640366 59.999416,212.019318  z"/>
<path fill="#E94335" opacity="1.000000" stroke="none" d=" M73.940170,78.934280   C101.004967,59.491192 127.757042,40.224628 154.537369,20.997435   C179.167755,3.313811 217.621353,10.772014 231.254333,40.730995   C240.960312,62.060284 236.872742,88.354744 216.505386,103.740585   C198.575043,117.285461 180.062714,130.060013 161.799789,143.164139   C161.407944,143.445297 160.923737,143.597748 160.327881,143.884766   C140.890442,129.919128 121.358231,116.019501 101.978638,101.910225   C90.650780,93.663002 78.432274,88.395798 64.144394,88.970886   C63.551064,88.994759 62.948799,88.796600 60.911678,88.473984   C65.823723,84.867157 69.731743,81.997566 73.940170,78.934280  z"/>
<path fill="#34A853" opacity="1.000000" stroke="none" d=" M530.108337,150.974884   C529.407532,171.654999 520.287048,186.940826 502.407379,196.216446   C484.177979,205.673508 465.801086,204.628937 449.002289,192.811966   C416.048462,169.630798 383.500122,145.873169 350.787140,122.349724   C342.406097,116.323044 333.828857,110.545883 325.705383,104.189369   C308.625275,90.824402 301.896820,72.946434 306.476746,51.997765   C311.114594,30.783962 324.963409,16.922955 346.324341,12.633606   C359.859253,9.915755 373.601898,11.408368 385.504852,19.963280   C427.146545,49.892059 468.913422,79.649460 510.339020,109.874542   C523.788513,119.687607 530.094910,133.754135 530.108337,150.974884  z"/>
<path fill="#F8AA00" opacity="1.000000" stroke="none" d=" M340.888184,287.376617   C323.683655,281.127991 312.707794,269.316101 307.029755,252.520264   C300.717926,233.849686 308.006165,210.255783 324.457703,197.748306   C339.522705,186.294968 355.088348,175.500137 370.435852,164.418549   C373.787872,161.998230 377.150299,159.592331 380.941376,156.868347   C390.943024,164.046021 401.014160,171.285675 411.098267,178.507187   C422.428619,186.621155 433.648438,194.897278 445.144623,202.769485   C455.140533,209.614349 466.632599,212.304138 479.905304,213.210052   C472.989014,218.183594 467.105530,222.415054 461.221405,226.645660   C436.968933,244.082855 412.691742,261.485809 388.475403,278.973022   C378.367126,286.272430 367.180328,290.272186 354.706879,289.894775   C350.179626,289.757782 345.688263,288.436768 340.888184,287.376617  z"/>
<path fill="#FFFFFF" opacity="1.000000" stroke="none" d=" M1159.315552,199.179596   C1147.886353,216.744461 1122.733643,220.318649 1107.637451,205.271896   C1100.465698,198.123657 1097.036133,189.796295 1095.872437,179.876785   C1094.515015,168.306366 1096.536865,157.831482 1102.966919,148.112991   C1112.622314,133.519913 1134.435181,129.791397 1148.434082,138.615906   C1160.811768,146.418427 1164.878174,157.932617 1165.974731,171.340927   C1166.779297,181.178741 1164.258545,190.316849 1159.315552,199.179596  z"/>
<path fill="#FFFFFF" opacity="1.000000" stroke="none" d=" M1481.680664,105.183937   C1491.579956,113.579865 1498.331665,123.627312 1500.534546,136.120804   C1504.432373,158.225204 1502.463745,179.271927 1485.981323,196.340408   C1477.140869,205.495255 1465.633789,210.237946 1452.966675,210.870667   C1440.918579,211.472458 1428.816895,211.000244 1416.366699,211.000244   C1416.366699,172.852692 1416.366699,133.788940 1416.366699,94.035950   C1438.398438,94.737587 1461.453735,89.935944 1481.680664,105.183937  z"/>
<path fill="#FFFFFF" opacity="1.000000" stroke="none" d=" M2844.810547,136.659790   C2861.247070,129.689301 2879.208740,136.203354 2887.507080,151.084030   C2896.904053,167.934982 2896.860352,185.076767 2885.859863,200.977264   C2871.435303,221.826355 2844.912354,220.289963 2830.554932,201.331558   C2819.547607,186.796448 2819.795654,162.105957 2830.158447,149.140198   C2834.009277,144.322021 2839.681641,140.959671 2844.810547,136.659790  z"/>
<path fill="#FFFFFF" opacity="1.000000" stroke="none" d=" M2034.812256,210.308029   C2024.641968,203.355179 2019.804688,193.912079 2017.834717,182.189911   C2015.770020,169.904617 2018.225830,158.929092 2025.071533,148.965347   C2036.804321,131.888535 2059.118652,128.665573 2074.527344,141.924866   C2082.836182,149.074875 2086.597900,158.047791 2088.181885,168.710876   C2089.813721,179.697006 2088.011475,189.915466 2082.308350,198.967041   C2071.997559,215.331665 2052.707520,221.692413 2034.812256,210.308029  z"/>
<path fill="#FFFFFF" opacity="1.000000" stroke="none" d=" M1760.240723,143.261719   C1769.190430,133.311279 1780.559692,132.178543 1792.049194,134.774689   C1806.463257,138.031677 1813.736938,148.396240 1815.520752,162.800476   C1793.753052,162.795441 1771.986084,162.795441 1749.958862,162.795441   C1751.791382,155.370377 1754.796753,148.884537 1760.240723,143.261719  z"/>
<path fill="#FFFFFF" opacity="1.000000" stroke="none" d=" M2157.902344,134.581604   C2166.869141,133.807526 2175.592041,132.868607 2183.433838,137.962143   C2192.417725,143.797699 2197.591797,151.997711 2198.687500,162.837555   C2176.979492,162.837555 2155.182373,162.837555 2132.917236,162.837555   C2136.941650,149.553406 2142.932617,138.458405 2157.902344,134.581604  z"/>
<path fill="#FFFFFF" opacity="1.000000" stroke="none" d=" M1556.112793,163.000000   C1553.481445,163.000000 1551.333862,163.000000 1549.132080,163.000000   C1552.170654,145.721634 1564.856689,131.409744 1587.509644,134.049774   C1602.110596,135.751404 1613.382324,147.783829 1613.916504,163.000000   C1594.800537,163.000000 1575.698608,163.000000 1556.112793,163.000000  z"/>
<path fill="#FFFFFF" opacity="1.000000" stroke="none" d=" M1263.012939,163.000000   C1258.399902,163.000000 1254.284546,163.000000 1250.101807,163.000000   C1252.898438,146.389099 1266.127930,130.881042 1289.851196,134.074722   C1303.034546,135.849503 1315.342041,148.820572 1314.751221,163.000000   C1297.686523,163.000000 1280.598511,163.000000 1263.012939,163.000000  z"/>
<path fill="#FFFFFF" opacity="1.000000" stroke="none" d=" M873.821655,207.315430   C857.322083,192.361115 855.384705,165.778214 868.334778,148.456207   C880.261780,132.502701 903.507324,128.605652 919.618469,141.068817   C930.149658,149.215530 934.675171,159.901016 935.116516,173.052841   C935.552124,186.033691 932.302429,197.197723 922.445801,206.066132   C912.383545,215.119614 900.898926,218.549088 887.842651,214.254807   C883.040283,212.675293 878.649475,209.844421 873.821655,207.315430  z"/>
<path fill="#FFFFFF" opacity="1.000000" stroke="none" d=" M1969.998291,172.254745   C1970.097290,184.616882 1967.062256,195.550751 1958.925781,204.453857   C1949.965088,214.258926 1932.769409,219.566620 1918.375732,213.167877   C1904.074951,206.810516 1896.996704,195.976135 1894.914673,180.857391   C1892.918701,166.361313 1896.474731,153.774307 1906.968872,143.665436   C1917.213013,133.797318 1930.088379,131.244385 1943.195679,135.370132   C1955.843628,139.351273 1964.633911,148.440842 1967.976318,161.843918   C1968.794678,165.125351 1969.330933,168.477112 1969.998291,172.254745  z"/>
<path fill="#FFFFFF" opacity="1.000000" stroke="none" d=" M2626.091064,134.000000   C2647.773682,132.237823 2665.083252,152.180313 2665.115723,172.753967   C2665.136230,185.777328 2662.089600,197.222519 2652.252686,206.236298   C2635.947021,221.177277 2612.086182,218.996979 2598.386230,201.673218   C2587.011719,187.289795 2586.936768,164.064240 2597.023193,150.157410   C2604.033203,140.491867 2613.119873,134.129303 2626.091064,134.000000  z"/>
<path fill="#FFFFFF" opacity="1.000000" stroke="none" d=" M980.176025,158.533966   C986.039673,146.536713 993.836182,137.690002 1007.410767,134.824829   C1027.317871,130.623093 1042.852539,140.677887 1049.605957,156.689301   C1055.989258,171.823334 1054.972290,187.471558 1044.885498,201.126526   C1032.034180,218.523911 1007.781189,221.574966 991.202209,206.628357   C977.575928,194.343613 975.641418,178.774475 979.616577,161.800171   C979.837341,160.857468 979.894043,159.876343 980.176025,158.533966  z"/>
</svg>
